P2
# Cave mapping
50 50
63
0 1 2 0 2 7 5 8 10 16 20 20 24 23 26 32 31 35 38 31 36 33 38 38 42 39 39 44 44 35 41 41 47 37 39 38 39 45 44 42 40 43 41 43 49 49 51 49 55 56
2 5 4 4 6 8 6 10 14 14 17 15 18 23 28 31 33 27 32 27 31 26 30 36 34 36 38 36 34 30 35 33 36 30 28 33 37 35 33 36 42 43 47 42 41 47 51 46 45 48
3 1 5 2 7 9 9 15 19 12 14 13 18 16 22 23 25 16 22 20 23 21 27 24 22 26 29 24 22 22 26 27 25 26 25 30 36 34 31 32 37 39 38 40 40 46 40 41 40 42
2 7 3 4 6 9 14 13 17 11 11 9 8 11 14 14 15 12 17 15 16 15 14 18 22 25 18 19 25 23 25 25 26 31 30 33 26 28 26 28 31 32 34 40 46 36 36 38 37 40
3 6 1 7 6 12 10 12 12 12 13 13 7 5 6 4 3 6 7 9 12 16 14 13 15 14 14 18 20 23 26 30 27 27 28 21 21 26 29 29 32 28 30 31 35 32 32 34 38 40
1 0 1 2 4 8 13 15 14 18 12 12 7 5 3 8 9 10 10 7 6 7 8 9 8 14 12 17 21 15 16 18 20 22 19 15 14 20 25 19 21 24 27 30 28 24 24 22 28 29
7 0 1 3 7 11 9 15 13 18 10 11 8 11 8 13 8 6 6 11 5 7 9 7 13 19 12 11 12 10 10 13 16 15 13 11 12 12 14 13 14 18 22 22 20 19 21 22 25 25
6 2 3 8 9 8 14 16 16 21 10 13 13 17 11 11 6 9 9 15 6 10 15 5 9 10 9 13 17 8 10 15 13 12 17 13 12 17 20 12 15 21 17 16 22 22 22 28 19 19
10 2 6 8 11 13 18 21 19 23 15 14 18 20 15 8 4 9 13 18 12 12 18 9 14 9 8 6 11 14 8 11 9 14 20 13 12 11 17 10 9 13 11 17 15 16 17 17 15 14
5 0 0 3 2 1 6 11 17 19 15 13 14 18 14 8 9 15 11 15 13 12 14 14 15 10 6 4 3 8 10 11 12 18 20 15 11 10 10 16 12 13 15 13 16 19 17 17 16 12
9 0 4 2 5 7 5 9 12 10 15 14 19 18 16 5 5 10 14 13 19 14 20 15 20 9 7 10 8 8 6 9 7 9 15 15 13 8 14 15 10 14 12 15 11 12 15 14 12 14
7 2 1 6 10 10 7 12 17 11 15 12 16 22 20 9 8 14 20 15 20 14 19 13 11 14 11 8 6 9 12 10 13 8 7 13 18 7 6 9 7 9 7 7 7 5 11 10 10 15
5 3 2 1 7 9 11 2 8 6 9 7 13 10 8 12 13 10 8 8 12 13 11 12 10 15 17 8 5 6 11 12 11 10 7 13 11 8 5 7 13 12 7 10 8 3 2 4 5 8
1 5 6 3 0 0 1 2 3 1 2 1 0 4 8 11 4 5 11 9 11 11 12 17 15 19 12 10 3 5 8 9 11 16 13 11 11 10 4 7 11 13 10 8 6 2 3 7 5 9
3 1 7 9 8 10 11 8 7 5 2 2 0 1 1 0 0 4 6 9 12 16 13 13 14 7 7 12 6 9 13 7 9 10 14 12 12 16 8 12 17 12 13 10 11 4 6 4 9 15
2 1 7 9 11 6 5 4 4 7 8 7 6 5 6 0 2 3 7 1 2 4 6 8 5 1 0 6 11 5 7 10 12 13 14 10 10 8 14 13 16 16 17 14 12 4 5 3 1 3
0 0 6 3 6 1 6 8 8 3 9 7 5 7 1 5 2 3 2 4 4 1 2 1 1 3 2 2 0 1 0 4 8 8 6 5 7 8 11 11 13 18 18 15 10 4 7 5 5 4
0 3 1 3 3 3 8 5 5 1 8 4 1 9 5 4 5 1 3 6 4 1 1 2 3 1 2 3 6 2 1 7 3 2 8 8 8 14 5 5 9 7 7 8 6 8 9 3 2 3
5 4 4 6 1 6 10 5 1 4 2 2 4 5 0 5 6 8 3 0 6 3 5 0 6 1 2 3 3 4 5 1 3 3 1 2 3 3 1 0 0 5 5 3 2 4 6 4 1 1
5 3 4 8 0 6 5 1 3 1 1 2 0 0 1 4 8 10 11 6 4 3 2 4 6 1 3 4 4 2 2 1 1 1 2 5 3 3 2 2 2 5 10 2 6 8 7 5 3 0
10 4 9 8 2 9 9 4 0 1 5 0 6 1 6 5 7 4 6 6 8 5 7 5 1 1 1 6 0 1 4 0 2 1 3 2 1 0 2 0 0 5 5 6 5 7 8 5 2 3
13 3 7 13 7 5 6 0 6 1 6 0 5 1 3 0 3 6 8 5 2 4 1 6 7 1 4 7 8 5 7 5 7 7 7 9 3 4 4 1 3 0 1 0 1 0 2 1 0 6
12 3 9 8 3 1 1 2 4 4 0 1 1 0 4 1 3 6 9 8 3 2 3 4 7 1 3 6 9 7 1 2 7 4 6 11 12 10 9 6 8 4 3 1 3 1 2 1 2 6
9 2 1 5 7 4 3 2 2 3 1 1 0 5 1 7 1 4 11 9 6 5 3 2 1 3 3 4 10 7 3 1 4 6 8 12 11 7 9 5 3 1 1 0 1 1 0 5 3 8
12 6 1 0 2 1 3 1 3 0 3 5 1 1 4 4 2 1 8 5 1 7 5 4 0 2 2 2 6 2 3 2 1 4 3 10 8 10 5 1 5 5 1 2 5 2 4 3 9 6
11 7 2 1 0 6 5 0 4 2 1 1 3 3 2 2 3 3 3 5 3 4 2 1 0 4 4 6 0 1 2 2 3 0 2 10 9 11 13 11 7 2 3 7 8 3 5 3 2 5
10 9 4 1 5 7 5 6 5 7 7 4 1 2 4 6 5 5 3 6 5 1 2 1 3 5 3 5 2 2 0 5 8 1 4 10 7 9 9 10 7 1 5 4 2 3 7 6 7 6
11 13 9 3 1 1 6 2 0 9 7 2 4 5 0 4 5 0 3 7 4 2 2 3 3 2 2 1 4 4 0 2 2 1 6 6 5 11 12 11 6 7 6 4 5 0 3 2 1 3
17 15 13 1 6 2 7 9 4 3 9 6 8 3 3 4 5 6 0 9 10 6 8 2 4 3 2 2 6 7 7 2 2 4 7 5 3 10 13 13 12 6 5 6 6 3 0 1 1 2
18 15 14 6 5 2 9 11 12 7 7 6 5 1 3 2 6 7 7 3 7 6 4 6 3 0 2 2 5 9 5 2 3 5 3 1 2 9 11 14 9 5 1 6 1 2 1 3 4 2
24 17 19 7 8 3 8 5 7 7 9 6 8 6 0 2 4 9 3 2 9 5 6 3 7 6 3 4 7 7 7 2 2 1 4 2 1 9 12 11 10 4 3 1 1 1 6 4 4 6
28 17 16 5 3 2 4 7 9 6 3 5 2 7 8 2 1 10 11 8 11 9 11 11 11 13 7 8 8 3 8 5 6 5 4 5 7 8 11 5 10 6 6 4 3 3 4 2 0 2
27 17 10 6 2 7 2 7 10 9 4 3 4 5 8 2 5 9 12 10 5 6 11 8 10 15 16 14 13 10 12 8 7 3 2 6 7 5 9 5 11 6 4 0 0 3 3 1 3 3
25 17 11 11 7 12 0 5 12 10 7 6 4 1 2 4 5 7 13 10 6 4 8 10 12 16 15 11 13 9 7 5 3 4 5 6 5 0 8 3 5 2 0 0 0 2 0 6 5 9
29 23 12 11 10 7 1 0 9 6 2 8 6 5 1 3 4 1 9 5 0 5 5 8 7 14 12 14 9 3 9 9 5 2 1 3 1 2 2 5 6 6 1 3 2 2 5 5 3 2
29 22 14 13 10 4 0 6 4 6 4 5 3 2 1 5 5 7 3 4 1 1 1 4 6 14 13 15 17 15 11 6 1 3 4 2 0 2 3 2 2 0 5 9 2 4 7 6 3 6
29 25 17 11 6 2 1 1 2 7 6 2 1 2 4 6 4 6 3 4 2 3 4 3 8 14 11 13 13 14 11 5 1 0 2 1 3 1 2 1 2 2 4 1 1 3 8 10 9 9
31 25 14 10 11 4 1 6 4 8 5 1 3 4 2 3 3 0 5 5 1 3 3 3 10 10 9 15 16 15 10 11 10 8 9 4 1 2 3 1 5 2 2 1 1 7 11 10 10 12
25 21 12 15 16 4 1 0 2 10 11 7 9 3 5 4 3 3 7 8 8 3 3 7 11 9 7 14 17 17 16 10 9 10 10 7 4 3 3 2 0 4 2 2 1 3 7 10 11 13
27 22 15 21 14 6 0 1 1 4 8 7 5 7 4 1 3 3 6 10 6 3 2 8 7 5 6 13 15 18 13 9 3 10 5 2 3 1 0 2 4 1 4 3 3 9 10 13 15 14
25 22 13 15 18 6 2 3 3 3 10 6 7 4 8 7 4 5 8 8 8 3 3 4 8 6 3 13 16 15 14 8 7 5 5 3 2 0 0 2 3 1 2 3 4 8 14 15 16 19
31 23 19 14 13 12 7 4 5 2 12 10 12 12 12 14 8 9 9 4 9 6 7 6 7 8 10 12 15 9 14 10 10 8 7 7 8 6 4 6 5 0 1 2 5 6 6 9 12 11
36 25 18 16 13 13 1 3 6 4 6 7 12 9 11 16 17 15 14 11 13 9 8 4 5 9 10 9 13 9 15 10 8 4 4 7 7 3 1 1 5 1 2 8 9 7 8 13 16 17
35 26 20 22 17 5 1 1 7 4 2 5 9 11 13 17 16 12 14 10 8 6 4 5 6 9 8 4 12 7 9 6 4 4 4 6 4 2 1 5 7 2 4 5 6 8 12 10 13 11
35 24 22 23 16 6 2 5 3 1 4 6 6 9 8 15 13 15 10 4 10 10 6 3 0 6 4 5 6 9 10 10 5 1 6 2 1 1 1 2 7 5 1 0 1 4 10 10 9 9
35 27 25 21 12 4 2 0 3 2 5 2 2 5 7 15 14 16 18 16 12 7 2 2 3 5 3 5 7 6 6 4 1 5 2 0 3 2 1 2 1 7 9 11 6 3 1 3 4 9
36 31 25 15 8 3 4 1 4 2 4 3 3 4 9 15 12 14 14 15 12 6 0 1 3 4 0 2 2 5 2 6 8 5 3 1 4 6 5 5 3 8 10 7 4 1 5 8 2 6
39 32 20 14 14 6 5 7 2 2 6 1 1 4 11 11 10 16 17 16 11 12 11 9 10 5 2 3 4 3 3 6 6 3 3 3 7 6 6 6 3 7 7 3 3 5 0 1 3 7
34 29 18 20 11 7 6 6 0 1 1 4 2 8 12 10 8 15 18 18 17 11 10 11 11 8 5 4 4 3 1 8 6 6 5 1 3 6 7 8 0 8 5 4 2 0 5 5 5 8
37 30 22 18 14 10 6 6 1 3 1 4 2 9 8 6 7 14 16 19 14 10 4 11 6 3 4 2 1 3 3 3 8 7 1 5 6 9 11 5 2 2 6 4 6 8 4 0 5 7